<?xml version="1.0" encoding="utf-8"?>
<!-- Generator: Adobe Illustrator 19.0.0, SVG Export Plug-In . SVG Version: 6.00 Build 0)  -->
<svg version="1.1" id="Layer_1" xmlns="http://www.w3.org/2000/svg" xmlns:xlink="http://www.w3.org/1999/xlink" x="0px" y="0px"
	 viewBox="0 0 200 40" style="enable-background:new 0 0 200 40;" xml:space="preserve">
<style type="text/css">
	.st0{fill:#F15A29;}
	.st1{fill:#F7941E;}
	.st2{fill:#39B54A;}
</style>
<g id="XMLID_2_">
	<path id="XMLID_3_" class="st0" d="M19.9,25.7V30H5.1V7.8h5v17.9H19.9z"/>
	<path id="XMLID_5_" class="st0" d="M28,8.3c0,0.9-0.3,1.6-0.8,2.1c-0.6,0.5-1.2,0.8-2,0.8s-1.4-0.3-2-0.8c-0.6-0.5-0.8-1.2-0.8-2.1
		c0-0.9,0.3-1.6,0.8-2.1c0.6-0.5,1.2-0.8,2-0.8s1.4,0.3,2,0.8C27.7,6.7,28,7.4,28,8.3z M27.5,30h-4.8V13.2h4.8V30z"/>
	<path id="XMLID_8_" class="st0" d="M38.1,12.7c1.4,0,2.6,0.2,3.5,0.5c0.9,0.3,1.7,0.8,2.3,1.4c0.6,0.6,1,1.3,1.2,2.2
		c0.2,0.9,0.4,1.8,0.4,2.8v9.9c-0.7,0.2-1.6,0.3-2.8,0.5c-1.2,0.2-2.7,0.3-4.4,0.3c-1.1,0-2.1-0.1-3-0.3c-0.9-0.2-1.6-0.5-2.3-0.9
		c-0.6-0.4-1.1-1-1.5-1.7c-0.3-0.7-0.5-1.6-0.5-2.6c0-1,0.2-1.8,0.6-2.5c0.4-0.7,0.9-1.2,1.6-1.6c0.7-0.4,1.4-0.7,2.3-0.9
		c0.9-0.2,1.7-0.3,2.7-0.3c0.6,0,1.2,0,1.6,0.1s0.9,0.1,1.2,0.2v-0.4c0-0.8-0.2-1.5-0.7-2c-0.5-0.5-1.3-0.7-2.6-0.7
		c-0.8,0-1.6,0.1-2.4,0.2c-0.8,0.1-1.5,0.3-2,0.5l-0.6-3.8c0.3-0.1,0.6-0.2,1-0.3s0.9-0.2,1.4-0.3s1-0.1,1.6-0.2
		C36.9,12.7,37.5,12.7,38.1,12.7z M38.4,26.7c0.5,0,0.9,0,1.3,0c0.4,0,0.8-0.1,1-0.1v-3.6c-0.2,0-0.5-0.1-0.9-0.1
		c-0.4,0-0.7-0.1-1.1-0.1c-0.4,0-0.9,0-1.3,0.1c-0.4,0.1-0.7,0.2-1,0.3c-0.3,0.1-0.5,0.4-0.7,0.6s-0.3,0.6-0.3,1
		c0,0.7,0.3,1.3,0.8,1.6C36.9,26.5,37.6,26.7,38.4,26.7z"/>
	<path id="XMLID_11_" class="st0" d="M65.4,21.6c0,1.3-0.2,2.5-0.6,3.6c-0.4,1.1-0.9,2-1.7,2.8c-0.7,0.8-1.6,1.4-2.6,1.8
		c-1,0.4-2.1,0.6-3.4,0.6c-1.2,0-2.4-0.2-3.4-0.6c-1-0.4-1.9-1-2.6-1.8c-0.7-0.8-1.3-1.7-1.7-2.8c-0.4-1.1-0.6-2.3-0.6-3.6
		c0-1.3,0.2-2.5,0.6-3.6s1-2,1.7-2.8s1.6-1.4,2.6-1.8c1-0.4,2.1-0.6,3.3-0.6c1.2,0,2.3,0.2,3.3,0.6c1,0.4,1.9,1,2.6,1.8
		c0.7,0.8,1.3,1.7,1.7,2.8C65.2,19,65.4,20.2,65.4,21.6z M60.6,21.6c0-1.5-0.3-2.6-0.9-3.5c-0.6-0.8-1.4-1.3-2.5-1.3
		s-1.9,0.4-2.5,1.3c-0.6,0.8-0.9,2-0.9,3.5s0.3,2.6,0.9,3.5c0.6,0.9,1.4,1.3,2.5,1.3s1.9-0.4,2.5-1.3C60.3,24.2,60.6,23,60.6,21.6z"
		/>
	<path id="XMLID_14_" class="st1" d="M84.3,25.7V30H69.4V7.8h5v17.9H84.3z"/>
	<path id="XMLID_16_" class="st1" d="M92.4,8.3c0,0.9-0.3,1.6-0.8,2.1c-0.6,0.5-1.2,0.8-2,0.8c-0.8,0-1.4-0.3-2-0.8
		c-0.6-0.5-0.8-1.2-0.8-2.1c0-0.9,0.3-1.6,0.8-2.1c0.6-0.5,1.2-0.8,2-0.8c0.8,0,1.4,0.3,2,0.8C92.1,6.7,92.4,7.4,92.4,8.3z M91.9,30
		h-4.8V13.2h4.8V30z"/>
	<path id="XMLID_19_" class="st1" d="M102.4,12.7c1.4,0,2.6,0.2,3.5,0.5c0.9,0.3,1.7,0.8,2.3,1.4c0.6,0.6,1,1.3,1.2,2.2
		c0.2,0.9,0.4,1.8,0.4,2.8v9.9c-0.7,0.2-1.6,0.3-2.8,0.5c-1.2,0.2-2.7,0.3-4.4,0.3c-1.1,0-2.1-0.1-3-0.3c-0.9-0.2-1.6-0.5-2.3-0.9
		c-0.6-0.4-1.1-1-1.5-1.7c-0.3-0.7-0.5-1.6-0.5-2.6c0-1,0.2-1.8,0.6-2.5s0.9-1.2,1.6-1.6c0.7-0.4,1.4-0.7,2.3-0.9
		c0.9-0.2,1.7-0.3,2.7-0.3c0.6,0,1.2,0,1.6,0.1c0.5,0.1,0.9,0.1,1.2,0.2v-0.4c0-0.8-0.2-1.5-0.7-2c-0.5-0.5-1.3-0.7-2.6-0.7
		c-0.8,0-1.6,0.1-2.4,0.2c-0.8,0.1-1.5,0.3-2,0.5l-0.6-3.8c0.3-0.1,0.6-0.2,1-0.3s0.9-0.2,1.4-0.3c0.5-0.1,1-0.1,1.6-0.2
		C101.3,12.7,101.9,12.7,102.4,12.7z M102.8,26.7c0.5,0,0.9,0,1.3,0s0.8-0.1,1-0.1v-3.6c-0.2,0-0.5-0.1-0.9-0.1
		c-0.4,0-0.7-0.1-1.1-0.1c-0.4,0-0.9,0-1.3,0.1c-0.4,0.1-0.7,0.2-1,0.3c-0.3,0.1-0.5,0.4-0.7,0.6c-0.2,0.3-0.3,0.6-0.3,1
		c0,0.7,0.2,1.3,0.8,1.6C101.3,26.5,101.9,26.7,102.8,26.7z"/>
	<path id="XMLID_22_" class="st1" d="M129.8,21.6c0,1.3-0.2,2.5-0.6,3.6c-0.4,1.1-0.9,2-1.7,2.8c-0.7,0.8-1.6,1.4-2.6,1.8
		c-1,0.4-2.1,0.6-3.4,0.6c-1.2,0-2.4-0.2-3.4-0.6c-1-0.4-1.9-1-2.6-1.8c-0.7-0.8-1.3-1.7-1.7-2.8c-0.4-1.1-0.6-2.3-0.6-3.6
		c0-1.3,0.2-2.5,0.6-3.6s1-2,1.7-2.8s1.6-1.4,2.6-1.8c1-0.4,2.1-0.6,3.3-0.6c1.2,0,2.3,0.2,3.3,0.6c1,0.4,1.9,1,2.6,1.8
		s1.3,1.7,1.7,2.8S129.8,20.2,129.8,21.6z M125,21.6c0-1.5-0.3-2.6-0.9-3.5c-0.6-0.8-1.4-1.3-2.5-1.3c-1.1,0-1.9,0.4-2.5,1.3
		c-0.6,0.8-0.9,2-0.9,3.5s0.3,2.6,0.9,3.5c0.6,0.9,1.4,1.3,2.5,1.3c1.1,0,1.9-0.4,2.5-1.3C124.7,24.2,125,23,125,21.6z"/>
	<path id="XMLID_25_" class="st2" d="M150.3,7.8v4.3h-6.7V30h-5V12.1h-6.7V7.8H150.3z"/>
	<path id="XMLID_27_" class="st2" d="M158.4,8.3c0,0.9-0.3,1.6-0.8,2.1c-0.6,0.5-1.2,0.8-2,0.8c-0.8,0-1.4-0.3-2-0.8
		c-0.6-0.5-0.8-1.2-0.8-2.1c0-0.9,0.3-1.6,0.8-2.1c0.6-0.5,1.2-0.8,2-0.8c0.8,0,1.4,0.3,2,0.8C158.1,6.7,158.4,7.4,158.4,8.3z
		 M157.9,30h-4.8V13.2h4.8V30z"/>
	<path id="XMLID_30_" class="st2" d="M168.4,12.7c1.4,0,2.6,0.2,3.5,0.5c0.9,0.3,1.7,0.8,2.3,1.4c0.6,0.6,1,1.3,1.2,2.2
		c0.2,0.9,0.4,1.8,0.4,2.8v9.9c-0.7,0.2-1.6,0.3-2.8,0.5c-1.2,0.2-2.7,0.3-4.4,0.3c-1.1,0-2.1-0.1-3-0.3c-0.9-0.2-1.6-0.5-2.3-0.9
		c-0.6-0.4-1.1-1-1.5-1.7c-0.3-0.7-0.5-1.6-0.5-2.6c0-1,0.2-1.8,0.6-2.5s0.9-1.2,1.6-1.6c0.7-0.4,1.4-0.7,2.3-0.9
		c0.9-0.2,1.7-0.3,2.7-0.3c0.6,0,1.2,0,1.6,0.1c0.5,0.1,0.9,0.1,1.2,0.2v-0.4c0-0.8-0.2-1.5-0.7-2c-0.5-0.5-1.3-0.7-2.6-0.7
		c-0.8,0-1.6,0.1-2.4,0.2c-0.8,0.1-1.5,0.3-2,0.5l-0.6-3.8c0.3-0.1,0.6-0.2,1-0.3s0.9-0.2,1.4-0.3c0.5-0.1,1-0.1,1.6-0.2
		C167.3,12.7,167.9,12.7,168.4,12.7z M168.8,26.7c0.5,0,0.9,0,1.3,0s0.8-0.1,1-0.1v-3.6c-0.2,0-0.5-0.1-0.9-0.1
		c-0.4,0-0.7-0.1-1.1-0.1c-0.4,0-0.9,0-1.3,0.1c-0.4,0.1-0.7,0.2-1,0.3c-0.3,0.1-0.5,0.4-0.7,0.6c-0.2,0.3-0.3,0.6-0.3,1
		c0,0.7,0.2,1.3,0.8,1.6C167.3,26.5,168,26.7,168.8,26.7z"/>
	<path id="XMLID_33_" class="st2" d="M180.1,13.7c0.8-0.2,1.9-0.5,3.1-0.7c1.3-0.2,2.6-0.3,4-0.3c1.4,0,2.6,0.2,3.6,0.6
		s1.7,0.9,2.3,1.6c0.6,0.7,0.9,1.5,1.2,2.4c0.2,0.9,0.4,2,0.4,3.1V30h-4.8v-8.9c0-1.5-0.2-2.6-0.6-3.3s-1.2-1-2.3-1
		c-0.3,0-0.7,0-1.1,0s-0.7,0.1-1,0.1v13h-4.8V13.7z"/>
</g>
</svg>
